<mxfile host="Electron" modified="2024-01-12T08:33:47.640Z" agent="Mozilla/5.0 (Macintosh; Intel Mac OS X 10_15_7) AppleWebKit/537.36 (KHTML, like Gecko) draw.io/22.1.11 Chrome/114.0.5735.289 Electron/25.9.8 Safari/537.36" etag="AI6Jms6Alle28kHqXyEq" version="22.1.11" type="device">
  <diagram name="第 1 页" id="oAqOXAfmqRXlhrZzl3bs">
    <mxGraphModel dx="954" dy="617" grid="0" gridSize="10" guides="1" tooltips="1" connect="1" arrows="1" fold="1" page="1" pageScale="1" pageWidth="827" pageHeight="1169" math="0" shadow="0">
      <root>
        <mxCell id="0" />
        <mxCell id="1" parent="0" />
        <mxCell id="jKIt1H73kO7v2H1fhi2A-1" value="" style="rounded=0;whiteSpace=wrap;html=1;strokeColor=none;fillColor=none;" vertex="1" parent="1">
          <mxGeometry x="185" y="371" width="424" height="357" as="geometry" />
        </mxCell>
        <mxCell id="JGgQgZ4eFUtp59aLr5hr-1" value="" style="whiteSpace=wrap;html=1;aspect=fixed;rounded=1;fillColor=#FFB703;strokeColor=#CC6600;strokeWidth=2;" parent="1" vertex="1">
          <mxGeometry x="358" y="395" width="67" height="67" as="geometry" />
        </mxCell>
        <mxCell id="JGgQgZ4eFUtp59aLr5hr-2" value="" style="whiteSpace=wrap;html=1;aspect=fixed;rounded=1;fillColor=#FFB703;strokeColor=#CC6600;strokeWidth=2;" parent="1" vertex="1">
          <mxGeometry x="360" y="471" width="67" height="67" as="geometry" />
        </mxCell>
        <mxCell id="JGgQgZ4eFUtp59aLr5hr-4" value="" style="rounded=1;whiteSpace=wrap;html=1;fillColor=#FB8402;strokeColor=#CC6600;strokeWidth=2;" parent="1" vertex="1">
          <mxGeometry x="360" y="547" width="68" height="83" as="geometry" />
        </mxCell>
        <mxCell id="JGgQgZ4eFUtp59aLr5hr-5" value="" style="whiteSpace=wrap;html=1;aspect=fixed;rounded=1;fillColor=#FFB703;strokeColor=#CC6600;strokeWidth=2;" parent="1" vertex="1">
          <mxGeometry x="362" y="639" width="67" height="67" as="geometry" />
        </mxCell>
        <mxCell id="JGgQgZ4eFUtp59aLr5hr-7" value="" style="rounded=1;whiteSpace=wrap;html=1;dashed=1;strokeColor=#666666;fillColor=#f5f5f5;fontColor=#333333;" parent="1" vertex="1">
          <mxGeometry x="206" y="559" width="106" height="59" as="geometry" />
        </mxCell>
        <mxCell id="JGgQgZ4eFUtp59aLr5hr-6" value="&lt;font face=&quot;Times New Roman&quot; style=&quot;font-size: 18px;&quot;&gt;Pandas&lt;br&gt;DataFrame&lt;/font&gt;" style="text;html=1;strokeColor=none;fillColor=none;align=center;verticalAlign=middle;whiteSpace=wrap;rounded=0;" parent="1" vertex="1">
          <mxGeometry x="199" y="572" width="122" height="30" as="geometry" />
        </mxCell>
        <mxCell id="JGgQgZ4eFUtp59aLr5hr-8" value="" style="strokeWidth=2;html=1;shape=mxgraph.flowchart.annotation_2;align=left;labelPosition=right;pointerEvents=1;fillStyle=hatch;perimeterSpacing=8;fillColor=#CCFF99;noLabel=0;" parent="1" vertex="1">
          <mxGeometry x="315" y="548" width="36" height="82" as="geometry" />
        </mxCell>
        <mxCell id="JGgQgZ4eFUtp59aLr5hr-9" value="" style="rounded=1;whiteSpace=wrap;html=1;dashed=1;strokeColor=#666666;fillColor=#f5f5f5;fontColor=#333333;" parent="1" vertex="1">
          <mxGeometry x="474" y="519" width="106" height="59" as="geometry" />
        </mxCell>
        <mxCell id="JGgQgZ4eFUtp59aLr5hr-10" value="&lt;font face=&quot;Times New Roman&quot; style=&quot;font-size: 18px;&quot;&gt;Dask&lt;br&gt;DataFrame&lt;/font&gt;" style="text;html=1;strokeColor=none;fillColor=none;align=center;verticalAlign=middle;whiteSpace=wrap;rounded=0;" parent="1" vertex="1">
          <mxGeometry x="467" y="531.5" width="122" height="30" as="geometry" />
        </mxCell>
        <mxCell id="JGgQgZ4eFUtp59aLr5hr-11" value="" style="strokeWidth=2;html=1;shape=mxgraph.flowchart.annotation_2;align=left;labelPosition=right;pointerEvents=1;fillStyle=hatch;perimeterSpacing=8;fillColor=#CCFF99;noLabel=0;rotation=-180;" parent="1" vertex="1">
          <mxGeometry x="437" y="395.5" width="36" height="310.5" as="geometry" />
        </mxCell>
      </root>
    </mxGraphModel>
  </diagram>
</mxfile>
